<?xml version="1.0" standalone="no"?>
<!DOCTYPE svg PUBLIC "-//W3C//DTD SVG 20010904//EN"
 "http://www.w3.org/TR/2001/REC-SVG-20010904/DTD/svg10.dtd">
<svg version="1.0" xmlns="http://www.w3.org/2000/svg"
 width="375.000000pt" height="324.000000pt" viewBox="0 0 375.000000 324.000000"
 preserveAspectRatio="xMidYMid meet">

<g transform="translate(0.000000,324.000000) scale(0.100000,-0.100000)"
fill="#000000" stroke="none">
<path d="M2085 2972 l-140 -3 -390 -654 c-214 -361 -399 -670 -410 -688 l-20
-32 -3 378 -2 377 -84 0 c-46 0 -104 -3 -130 -6 l-46 -7 0 -658 0 -658 125
-70 c68 -39 127 -71 130 -71 3 0 5 53 5 117 l0 117 92 154 c73 124 93 151 103
140 7 -7 33 -42 57 -78 25 -36 67 -97 95 -137 l50 -72 50 117 c28 64 54 127
58 139 5 18 -12 48 -79 145 -47 67 -86 127 -86 134 0 6 65 119 143 250 329
547 628 1055 625 1062 -2 4 -66 6 -143 4z"/>
<path d="M270 1858 l0 -923 153 -87 c576 -328 779 -439 792 -435 10 4 95 202
95 223 0 5 -69 48 -152 94 -220 122 -580 326 -601 342 -16 12 -17 43 -15 507
l3 494 95 -76 c52 -43 98 -77 103 -77 4 0 7 95 7 210 l0 210 -77 2 c-43 0 -90
0 -105 -1 l-28 -2 0 85 0 86 498 0 c463 0 500 1 514 18 15 17 148 240 148 248
0 2 -322 4 -715 4 l-715 0 0 -922z"/>
<path d="M2176 2654 c-42 -69 -76 -130 -76 -135 0 -5 203 -9 510 -9 281 0 510
-2 510 -4 0 -2 -37 -40 -82 -84 l-83 -82 -202 5 c-111 2 -204 1 -207 -3 -2 -4
6 -32 19 -62 12 -30 37 -90 55 -132 29 -72 34 -78 61 -78 29 0 29 0 15 -29
-14 -27 -13 -34 31 -145 l47 -117 223 223 c164 164 223 218 224 203 0 -11 0
-143 -1 -292 l-2 -273 136 0 136 0 0 570 0 570 -619 0 -618 0 -77 -126z"/>
<path d="M2266 2340 l-119 -5 -60 -140 c-32 -77 -100 -237 -149 -355 -50 -118
-125 -298 -168 -400 -43 -102 -164 -389 -268 -638 l-190 -453 37 -23 c80 -50
182 -99 190 -90 13 14 667 1615 716 1752 11 28 22 52 26 52 4 0 31 -60 59
-132 28 -73 63 -163 78 -200 l26 -68 133 0 c73 0 133 3 133 7 0 3 -29 74 -64
157 -36 83 -101 236 -145 340 -54 131 -85 192 -98 195 -10 4 -72 4 -137 1z"/>
<path d="M2181 1518 c-5 -13 -28 -68 -50 -122 -23 -55 -41 -103 -41 -108 0 -4
112 -8 248 -8 l249 0 12 -27 c7 -16 57 -136 111 -268 147 -360 147 -359 159
-363 8 -3 200 96 219 113 3 2 -92 235 -167 408 -28 65 -51 123 -51 128 0 6 72
8 176 7 l176 -3 2 -60 c5 -103 1 -110 -70 -147 -35 -18 -64 -36 -64 -40 0 -20
96 -238 105 -238 6 1 73 36 150 79 l140 79 3 296 2 296 -650 0 -650 0 -9 -22z"/>
<path d="M1901 818 c-28 -68 -51 -131 -51 -141 0 -10 34 -66 75 -125 41 -58
71 -110 67 -114 -4 -3 -40 -25 -80 -48 l-73 -41 -54 31 -53 31 -21 -55 c-11
-30 -34 -84 -50 -120 l-29 -65 100 -57 c89 -50 103 -55 125 -45 66 30 877 472
892 487 12 11 7 31 -33 134 l-48 121 -41 -24 c-23 -13 -67 -38 -97 -54 -30
-17 -110 -60 -176 -97 -67 -36 -123 -66 -126 -66 -2 0 -62 83 -133 185 -72
101 -133 184 -136 185 -3 0 -29 -55 -58 -122z"/>
</g>
</svg>
