<?xml version="1.0" standalone="no"?>
<!DOCTYPE svg PUBLIC "-//W3C//DTD SVG 20010904//EN"
 "http://www.w3.org/TR/2001/REC-SVG-20010904/DTD/svg10.dtd">
<svg version="1.0" xmlns="http://www.w3.org/2000/svg"
 width="1015.000000pt" height="1024.000000pt" viewBox="0 0 1015.000000 1024.000000"
 preserveAspectRatio="xMidYMid meet">

<g transform="translate(0.000000,1024.000000) scale(0.100000,-0.100000)"
fill="#000000" stroke="none">
<path d="M3615 9480 c-4 -6 -4 -45 0 -86 l7 -74 79 0 80 0 6 30 6 30 868 0
869 0 0 25 0 25 -870 0 -870 0 0 25 c0 24 -2 25 -69 25 -38 0 -76 3 -84 6 -8
3 -18 0 -22 -6z"/>
<path d="M5727 9474 c-9 -9 -9 -96 -1 -118 5 -12 21 -16 70 -16 l64 0 0 65 0
65 -49 0 c-27 0 -56 2 -63 5 -8 3 -17 2 -21 -1z"/>
<path d="M6370 9409 l0 -69 70 0 70 0 0 69 0 69 -70 0 -70 1 0 -70z"/>
<path d="M7510 9417 c0 -80 9 -89 87 -85 l58 3 0 70 0 70 -72 3 -73 3 0 -64z"/>
<path d="M6042 9408 l3 -63 70 0 70 0 3 39 c2 22 1 50 -2 63 -6 21 -11 23 -77
23 l-70 0 3 -62z"/>
<path d="M6680 9405 l0 -25 333 2 332 3 3 23 3 22 -335 0 -336 0 0 -25z"/>
<path d="M4885 9210 c-2895 -5 -3054 -6 -3124 -24 -340 -82 -636 -315 -789
-621 -37 -75 -86 -227 -103 -325 -12 -62 -14 -600 -14 -3140 0 -2894 1 -3070
18 -3147 57 -266 185 -491 369 -653 191 -167 393 -262 618 -290 130 -16 6250
-16 6390 0 282 32 502 144 701 359 181 194 281 417 309 682 7 67 10 1098 10
3078 0 3205 2 3053 -50 3241 -28 99 -106 261 -171 355 -62 91 -210 234 -307
298 -125 84 -302 153 -447 175 -109 17 -175 17 -3410 12z m3347 -225 c193 -18
381 -113 541 -272 122 -121 209 -272 260 -451 l22 -77 5 -2945 c3 -1620 2
-3002 -2 -3072 -12 -212 -68 -391 -169 -539 -99 -146 -293 -300 -450 -356
-173 -62 65 -58 -3389 -58 l-3165 0 -89 23 c-151 38 -259 93 -382 194 -158
129 -261 295 -322 516 l-27 97 0 3040 c0 3299 -4 3091 56 3269 83 250 299 475
549 574 129 50 169 56 480 61 408 8 5999 4 6082 -4z"/>
<path d="M2443 8863 c-8 -2 -13 -22 -13 -44 l0 -39 55 0 55 0 0 45 0 45 -42
-1 c-24 0 -49 -3 -55 -6z"/>
<path d="M2670 8826 l0 -46 56 0 55 0 -3 43 -3 42 -52 3 -53 3 0 -45z"/>
<path d="M3158 8858 c-3 -7 -3 -27 -1 -44 5 -29 8 -32 51 -37 26 -3 48 -4 49
-3 1 1 3 22 5 46 l3 45 -51 3 c-35 2 -53 -1 -56 -10z"/>
<path d="M3407 8863 c-4 -3 -7 -24 -7 -45 l0 -38 55 0 55 0 0 45 0 45 -48 0
c-27 0 -52 -3 -55 -7z"/>
<path d="M3647 8863 c-4 -3 -7 -24 -7 -45 l0 -38 55 0 55 0 0 45 0 45 -48 0
c-27 0 -52 -3 -55 -7z"/>
<path d="M3882 8828 l3 -43 53 -3 52 -3 0 45 0 46 -56 0 -55 0 3 -42z"/>
<path d="M4127 8863 c-4 -3 -7 -24 -7 -45 l0 -38 55 0 55 0 0 45 0 45 -48 0
c-27 0 -52 -3 -55 -7z"/>
<path d="M2910 8820 l0 -40 55 0 55 0 0 40 0 40 -55 0 -55 0 0 -40z"/>
<path d="M1993 8835 c-151 -27 -298 -91 -411 -179 -131 -101 -248 -252 -299
-383 -77 -203 -73 -122 -73 -1610 l0 -1323 25 0 24 0 3 1348 3 1347 23 80 c66
236 213 430 412 549 145 86 303 126 496 126 l104 0 0 30 0 30 -117 -1 c-65 0
-150 -7 -190 -14z"/>
<path d="M4380 8820 l0 -30 1818 0 c1996 0 1930 2 2091 -60 149 -58 306 -178
396 -305 81 -115 145 -273 165 -410 5 -40 10 -308 10 -617 l0 -548 25 0 25 0
0 569 c0 625 -4 673 -60 819 -49 127 -115 229 -209 323 -139 139 -282 220
-466 262 -89 21 -105 21 -1942 24 l-1853 4 0 -31z"/>
<path d="M8837 6668 c-3 -23 -3 -46 -1 -50 3 -4 25 -8 50 -8 l44 0 0 50 0 50
-44 0 -43 0 -6 -42z"/>
<path d="M8840 6430 l0 -50 45 0 45 0 0 50 0 50 -45 0 -45 0 0 -50z"/>
<path d="M3082 6395 c-61 -27 -70 -101 -17 -151 l35 -33 0 -205 c0 -112 4
-215 9 -228 5 -13 36 -50 70 -83 l61 -60 0 -267 c0 -258 1 -268 19 -268 28 0
35 86 29 343 l-5 209 -72 72 -71 71 0 216 0 217 28 5 c29 6 52 40 52 78 0 33
-29 79 -56 89 -33 13 -42 12 -82 -5z m81 -56 c5 -9 7 -28 3 -42 -5 -22 -12
-27 -35 -27 -29 0 -61 22 -61 41 0 6 5 19 11 30 13 24 66 23 82 -2z"/>
<path d="M6914 6360 c-59 -24 -72 -104 -25 -151 16 -16 35 -29 43 -29 10 0 12
-42 10 -217 l-2 -218 -71 -66 -70 -66 3 -79 c3 -66 6 -79 21 -82 15 -3 17 5
17 71 l0 75 75 73 75 72 -7 222 c-6 222 -6 223 16 230 22 7 51 52 51 80 0 29
-28 71 -55 83 -30 14 -51 14 -81 2z m70 -46 c10 -4 16 -18 16 -40 0 -27 -5
-37 -25 -46 -48 -22 -100 43 -63 80 13 13 47 16 72 6z"/>
<path d="M8834 6219 c3 -17 6 -40 6 -50 0 -16 8 -19 45 -19 l45 0 0 50 0 50
-51 0 -51 0 6 -31z"/>
<path d="M2829 6131 c-45 -46 -35 -117 21 -149 30 -17 30 -17 30 -109 l0 -91
100 -102 100 -102 2 -162 c3 -144 5 -161 21 -164 16 -3 17 10 17 170 l0 173
-100 100 -100 100 0 92 c0 58 4 93 10 93 6 0 22 11 35 25 56 55 11 155 -70
155 -27 0 -44 -8 -66 -29z m92 -21 c19 -11 25 -43 13 -74 -9 -24 -71 -21 -84
3 -29 56 15 100 71 71z"/>
<path d="M7134 6054 c-71 -35 -70 -137 2 -164 22 -9 24 -15 24 -83 l0 -73 -39
-30 c-21 -16 -70 -59 -109 -96 l-70 -66 -4 -110 c-3 -99 -1 -109 13 -101 19 9
29 59 29 139 0 55 1 57 48 92 26 20 74 64 106 97 l60 60 4 86 c3 57 8 85 17
85 23 0 55 46 55 79 0 45 -16 70 -55 87 -42 17 -43 17 -81 -2z m86 -55 c15
-27 4 -69 -18 -70 -55 -4 -82 11 -82 45 0 31 19 46 57 46 23 0 36 -6 43 -21z"/>
<path d="M8840 5970 l0 -50 45 0 45 0 0 50 0 50 -45 0 -45 0 0 -50z"/>
<path d="M5059 5901 c-21 -21 -29 -39 -29 -64 0 -37 32 -87 56 -87 11 0 14
-28 14 -160 0 -165 6 -198 44 -229 13 -11 6 -25 -50 -108 -36 -52 -63 -100
-61 -106 9 -29 32 -9 101 90 l75 108 -29 30 -28 30 -4 173 c-3 158 -2 172 15
172 31 0 57 37 57 81 0 55 -42 99 -95 99 -27 0 -44 -8 -66 -29z m102 -30 c32
-32 2 -100 -39 -87 -28 9 -52 33 -52 52 0 26 39 56 63 48 12 -3 25 -9 28 -13z"/>
<path d="M1985 5895 c-2 -5 -6 -407 -9 -891 -5 -764 -4 -883 9 -894 10 -9 72
-11 232 -8 l218 3 5 553 5 553 105 -118 c58 -64 150 -167 205 -228 138 -151
325 -361 482 -540 72 -83 149 -167 172 -188 l42 -37 202 2 202 3 2 898 3 897
-230 0 -230 0 -2 -127 c0 -71 0 -306 0 -523 1 -217 -1 -408 -6 -423 -7 -27
-19 -16 -308 310 -166 186 -366 410 -445 498 -79 89 -164 184 -189 213 l-45
51 -209 3 c-133 2 -210 -1 -211 -7z m294 -276 c45 -45 44 -98 -4 -146 l-35
-35 0 -438 0 -438 36 -36 c33 -33 36 -40 31 -79 -8 -55 -52 -97 -103 -97 -53
0 -104 53 -104 108 0 43 27 87 60 97 20 6 20 17 20 441 l0 435 -40 38 c-34 33
-40 44 -40 80 0 61 41 101 103 101 37 0 51 -6 76 -31z m1417 -3 c25 -25 34
-43 34 -67 0 -40 -31 -95 -57 -103 -17 -5 -18 -31 -22 -451 -3 -394 -2 -445
12 -445 24 0 67 -58 67 -91 0 -37 -24 -85 -49 -99 -28 -14 -77 -12 -110 4 -54
29 -69 114 -26 160 13 14 31 26 39 26 14 0 16 52 16 444 0 432 -1 445 -20 451
-10 3 -28 21 -40 39 -48 78 -5 166 80 166 34 0 48 -6 76 -34z"/>
<path d="M2165 5596 c-30 -31 -31 -45 -4 -80 24 -31 68 -35 92 -8 22 24 21 55
0 80 -30 34 -59 37 -88 8z"/>
<path d="M2178 4509 c-25 -14 -40 -46 -33 -69 9 -30 60 -53 85 -40 51 27 50
91 -1 109 -18 6 -32 11 -33 11 -1 0 -9 -5 -18 -11z"/>
<path d="M3576 5588 c-32 -46 -6 -98 49 -98 24 0 39 7 49 22 22 31 20 51 -7
76 -30 29 -71 28 -91 0z"/>
<path d="M3574 4486 c-13 -21 -14 -29 -2 -53 18 -39 61 -52 88 -28 22 20 27
74 8 93 -22 22 -76 15 -94 -12z"/>
<path d="M4033 5778 c35 -68 120 -229 187 -358 67 -129 137 -262 155 -295 18
-33 81 -154 140 -270 59 -115 145 -280 190 -365 45 -85 108 -204 140 -265 31
-60 62 -113 68 -117 7 -4 71 -8 142 -8 l130 0 26 48 c34 60 505 947 657 1237
64 121 151 285 194 365 l77 145 -256 3 c-234 2 -257 1 -269 -15 -7 -10 -61
-110 -120 -223 -59 -113 -128 -245 -154 -295 -26 -49 -100 -193 -165 -318 -64
-126 -121 -225 -125 -220 -5 4 -69 125 -143 268 -74 143 -198 382 -275 530
l-140 270 -262 3 -262 2 65 -122z m432 -149 c39 -34 46 -74 23 -135 -10 -28
-9 -36 4 -51 9 -10 118 -209 243 -443 125 -234 235 -438 244 -455 10 -16 30
-52 46 -79 l27 -48 28 48 c15 27 57 101 92 164 36 63 137 248 226 410 88 162
178 327 200 365 37 65 39 72 26 97 -40 77 10 158 97 158 43 0 99 -56 99 -100
0 -63 -43 -109 -102 -110 -32 0 -37 -4 -47 -32 -6 -18 -54 -109 -105 -203 -97
-176 -333 -611 -394 -725 -39 -73 -91 -152 -105 -162 -18 -11 -44 14 -86 84
-54 89 -444 814 -507 941 -47 94 -50 97 -82 97 -44 0 -68 14 -87 50 -30 57
-16 118 33 144 45 25 87 20 127 -15z"/>
<path d="M4351 5594 c-24 -31 -25 -37 -10 -67 24 -45 67 -50 98 -11 26 34 26
54 1 82 -28 30 -64 28 -89 -4z"/>
<path d="M5675 5606 c-27 -19 -24 -74 4 -98 30 -23 42 -23 75 3 31 25 33 47 5
83 -22 29 -55 33 -84 12z"/>
<path d="M6227 5893 c-11 -11 -8 -1738 3 -1767 l10 -26 225 0 225 0 0 345 0
345 113 0 112 0 160 -172 c88 -95 216 -233 285 -308 69 -74 141 -152 161 -172
l37 -38 266 0 c146 0 266 2 266 5 0 5 -216 253 -505 580 -82 94 -176 200 -208
237 l-59 67 359 417 c197 229 370 431 385 448 15 17 27 34 28 39 0 4 -117 7
-259 7 l-259 0 -124 -132 c-67 -73 -162 -173 -209 -223 -47 -49 -146 -155
-220 -235 -78 -85 -141 -145 -151 -144 -10 0 -52 1 -93 2 l-75 2 0 108 c0 60
-3 224 -7 365 l-6 257 -227 0 c-125 0 -230 -3 -233 -7z m304 -272 c39 -39 40
-96 3 -140 -14 -17 -31 -31 -37 -31 -9 0 -11 -60 -9 -230 l3 -230 269 0 c259
0 269 1 275 20 17 53 108 78 159 45 74 -49 48 -174 -39 -191 -39 -7 -88 15
-111 51 l-16 25 -269 0 -269 0 0 -188 0 -188 35 -34 c27 -26 35 -42 35 -68 0
-48 -34 -98 -75 -112 -101 -33 -182 105 -106 181 16 16 35 29 43 29 11 0 12
78 8 438 l-5 438 -37 33 c-33 29 -38 39 -38 78 0 36 6 50 29 74 24 24 38 29
76 29 38 0 52 -5 76 -29z"/>
<path d="M6406 5588 c-9 -12 -16 -29 -16 -38 0 -54 71 -79 111 -39 21 21 20
59 -3 86 -18 22 -75 16 -92 -9z"/>
<path d="M7092 5018 c-19 -19 -15 -72 7 -92 28 -25 72 -17 91 17 13 24 13 30
0 55 -12 20 -25 28 -50 30 -19 2 -41 -3 -48 -10z"/>
<path d="M6429 4506 c-33 -16 -37 -61 -8 -92 27 -29 43 -30 69 -4 50 50 1 127
-61 96z"/>
<path d="M8840 5740 l0 -50 45 0 45 0 0 44 c0 46 -11 56 -67 56 -21 0 -23 -5
-23 -50z"/>
<path d="M8841 5546 c-7 -8 -11 -32 -9 -53 3 -38 3 -38 51 -41 l47 -3 0 49 c0
47 -1 50 -31 56 -43 8 -45 8 -58 -8z"/>
<path d="M6818 5323 c-20 -22 -24 -78 -7 -89 19 -12 30 12 27 61 -3 46 -4 47
-20 28z"/>
<path d="M8840 5275 l0 -45 45 0 45 0 0 45 0 45 -45 0 -45 0 0 -45z"/>
<path d="M1190 5149 l0 -50 43 3 42 3 3 48 3 47 -45 0 -46 0 0 -51z"/>
<path d="M8847 5083 c-4 -3 -7 -26 -7 -50 l0 -43 45 0 45 0 0 50 0 50 -38 0
c-21 0 -42 -3 -45 -7z"/>
<path d="M7728 5033 c-8 -10 -18 -26 -21 -35 -6 -16 -21 -18 -125 -18 -65 0
-122 -3 -125 -7 -4 -3 -2 -12 4 -20 8 -9 42 -13 125 -13 63 0 114 -4 114 -9 0
-4 11 -20 25 -35 18 -20 34 -26 65 -26 83 0 119 84 64 149 -21 26 -33 31 -68
31 -28 0 -48 -6 -58 -17z m105 -44 c16 -26 0 -68 -30 -75 -14 -4 -33 -2 -42 3
-17 11 -26 55 -17 79 8 20 75 15 89 -7z"/>
<path d="M1190 4914 l0 -55 43 3 42 3 3 53 3 52 -45 0 -46 0 0 -56z"/>
<path d="M2564 4889 c-3 -6 -3 -118 1 -250 l7 -239 82 -82 81 -83 0 -61 c0
-57 -2 -63 -32 -88 -27 -23 -33 -35 -33 -68 0 -84 96 -129 153 -73 49 50 42
121 -14 151 -28 14 -29 18 -29 83 l0 68 -90 89 -90 88 0 238 c0 201 -2 238
-14 238 -8 0 -18 -5 -22 -11z m236 -844 c16 -19 5 -61 -18 -74 -39 -20 -85 30
-68 74 7 20 70 20 86 0z"/>
<path d="M4109 4861 c-21 -21 -29 -39 -29 -64 0 -49 8 -66 41 -82 57 -30 112
-13 124 38 6 21 10 22 100 19 90 -3 95 -2 95 17 0 19 -6 21 -72 21 -86 0 -118
7 -118 26 0 18 -58 54 -88 54 -13 0 -37 -13 -53 -29z m92 -21 c38 -21 13 -100
-33 -100 -26 0 -58 36 -58 65 0 38 49 57 91 35z"/>
<path d="M8837 4853 c-4 -3 -7 -26 -7 -50 l0 -43 50 0 50 0 0 50 0 50 -43 0
c-24 0 -47 -3 -50 -7z"/>
<path d="M1190 4679 l0 -50 43 3 42 3 3 48 3 47 -45 0 -46 0 0 -51z"/>
<path d="M6800 4533 l0 -147 70 -69 70 -68 0 -233 0 -233 -24 -11 c-64 -29
-71 -109 -15 -156 35 -30 58 -32 99 -11 37 19 50 43 50 90 0 29 -7 44 -32 67
l-33 31 -1 238 -1 238 -71 67 -72 66 0 139 c0 132 -1 139 -20 139 -19 0 -20
-7 -20 -147z m191 -803 c21 -12 25 -41 9 -71 -13 -23 -62 -26 -84 -3 -46 46
15 106 75 74z"/>
<path d="M6940 4542 l0 -89 73 -69 c39 -39 89 -83 110 -98 36 -28 37 -30 37
-92 0 -51 -4 -68 -20 -84 -11 -11 -24 -20 -29 -20 -16 0 -33 -58 -26 -89 15
-70 112 -96 160 -45 34 37 34 96 0 129 -13 14 -29 25 -35 25 -6 0 -10 30 -10
76 l0 76 -65 66 c-35 37 -84 83 -109 102 l-45 35 -1 67 c0 75 -6 98 -26 98
-11 0 -14 -19 -14 -88z m278 -484 c7 -7 12 -24 12 -38 0 -47 -44 -66 -84 -37
-22 16 -25 65 -5 78 20 13 63 11 77 -3z"/>
<path d="M8836 4608 c-3 -13 -6 -35 -6 -50 0 -27 2 -28 50 -28 l50 0 0 50 0
50 -44 0 c-37 0 -45 -4 -50 -22z"/>
<path d="M4243 4512 c-30 -5 -63 -53 -63 -92 0 -22 9 -41 30 -61 25 -26 36
-30 72 -27 36 2 46 8 63 35 l20 32 143 1 c131 0 143 2 140 18 -3 15 -19 17
-138 20 l-134 3 -26 30 c-26 31 -69 47 -107 41z m70 -63 c13 -20 1 -68 -18
-76 -45 -17 -83 23 -71 73 6 22 11 25 43 22 20 -2 40 -10 46 -19z"/>
<path d="M1190 4450 l0 -50 39 0 c48 0 55 9 46 60 -7 39 -8 40 -46 40 l-39 0
0 -50z"/>
<path d="M8860 4388 c0 -2 -2 -496 -4 -1098 -2 -955 -5 -1103 -19 -1161 -42
-178 -107 -302 -222 -427 -176 -189 -369 -274 -660 -288 l-135 -7 0 -30 0 -30
133 6 c93 4 162 14 232 32 343 88 607 348 697 687 l22 83 3 1118 4 1117 -26 0
c-14 0 -25 -1 -25 -2z"/>
<path d="M1186 4254 c-10 -26 -7 -69 6 -82 7 -7 26 -12 44 -12 30 0 32 2 38
45 4 25 4 49 1 55 -10 17 -82 12 -89 -6z"/>
<path d="M1190 3980 l0 -50 39 0 c42 0 51 13 51 73 0 25 -3 27 -45 27 l-45 0
0 -50z"/>
<path d="M1190 3745 l0 -55 45 0 45 0 0 55 0 55 -45 0 -45 0 0 -55z"/>
<path d="M1190 3510 l0 -50 40 0 40 0 0 50 0 50 -40 0 -40 0 0 -50z"/>
<path d="M1188 3308 c-2 -13 -1 -36 1 -51 3 -26 6 -28 45 -25 l41 3 3 48 3 47
-45 0 c-39 0 -45 -3 -48 -22z"/>
<path d="M1210 2653 c1 -481 4 -524 60 -675 63 -174 222 -370 385 -476 88 -57
243 -114 362 -132 45 -7 693 -11 1890 -13 l1821 -2 4 30 3 30 -1840 0 c-2025
0 -1891 -4 -2061 60 -145 55 -306 180 -400 312 -69 96 -133 240 -155 346 -17
82 -19 139 -19 525 l0 432 -25 0 -25 0 0 -437z"/>
<path d="M6140 1437 c-27 -14 -40 -61 -21 -80 8 -8 11 -1 11 26 0 31 4 38 27
43 18 5 37 1 57 -10 31 -17 31 -17 11 2 -28 28 -56 34 -85 19z"/>
<path d="M6622 1438 c-27 -14 -38 -52 -23 -81 10 -20 10 -19 5 9 -10 57 36 77
111 50 16 -6 15 -4 -5 13 -28 23 -53 25 -88 9z"/>
<path d="M7085 1440 c-10 -17 16 -25 68 -22 79 5 76 27 -4 27 -33 0 -62 -2
-64 -5z"/>
<path d="M5873 1428 c2 -8 16 -12 33 -10 17 2 42 -2 57 -7 31 -12 34 -9 11 13
-19 20 -108 23 -101 4z"/>
<path d="M6359 1406 c4 -30 4 -30 14 -8 12 27 61 30 89 5 16 -14 18 -15 18 0
0 23 -19 31 -75 32 l-51 1 5 -30z"/>
<path d="M6848 1428 c6 -6 33 -12 59 -12 41 -1 48 -4 48 -21 0 -13 -8 -21 -21
-23 -20 -3 -20 -4 5 -31 30 -34 35 -33 22 2 -7 17 -7 28 -1 32 6 4 10 19 10
36 l0 29 -67 0 c-51 0 -64 -3 -55 -12z"/>
<path d="M7331 1393 c1 -47 1 -47 10 -15 7 24 15 32 32 32 34 0 51 -15 44 -39
-4 -16 -1 -21 14 -21 16 0 19 7 19 47 0 45 -1 46 -19 29 -18 -16 -22 -16 -50
-2 -46 24 -51 21 -50 -31z"/>
<path d="M7588 1385 l4 -45 49 0 49 0 0 45 0 45 -53 0 -52 0 3 -45z m72 0 c0
-20 -5 -25 -25 -25 -20 0 -25 5 -25 25 0 20 5 25 25 25 20 0 25 -5 25 -25z"/>
<path d="M7101 1368 c-1 -21 3 -26 15 -21 9 3 11 9 6 12 -5 3 -12 13 -15 21
-3 9 -6 4 -6 -12z"/>
<path d="M5981 1364 c0 -11 3 -14 6 -6 3 7 2 16 -1 19 -3 4 -6 -2 -5 -13z"/>
<path d="M6360 1326 c0 -9 5 -16 10 -16 6 0 10 4 10 9 0 6 -4 13 -10 16 -5 3
-10 -1 -10 -9z"/>
<path d="M6465 1330 c-3 -5 -1 -10 4 -10 6 0 11 5 11 10 0 6 -2 10 -4 10 -3 0
-8 -4 -11 -10z"/>
<path d="M6688 1323 c7 -3 16 -2 19 1 4 3 -2 6 -13 5 -11 0 -14 -3 -6 -6z"/>
<path d="M590 6835 l0 -66 68 3 67 3 3 63 3 62 -71 0 -70 0 0 -65z"/>
<path d="M597 6593 c-3 -5 -3 -35 0 -66 l6 -56 58 2 59 1 0 58 0 58 -44 0
c-24 0 -51 3 -59 6 -8 3 -17 1 -20 -3z m87 -29 c17 -7 21 -41 8 -62 -6 -8 -19
-10 -40 -6 -28 6 -32 10 -32 40 0 29 3 34 24 34 13 0 31 -3 40 -6z"/>
<path d="M600 6286 c-3 -2 -3 -29 -2 -59 l4 -55 59 1 59 2 0 52 0 53 -37 0
c-21 0 -47 3 -58 6 -11 3 -23 3 -25 0z m108 -58 c-3 -20 -9 -23 -43 -23 -34 0
-40 3 -43 23 -3 20 1 22 43 22 42 0 46 -2 43 -22z"/>
<path d="M9393 6243 c-9 -3 -13 -29 -13 -79 0 -70 1 -74 25 -80 l25 -6 0 -949
0 -949 25 0 25 0 2 778 c1 427 2 854 1 949 l-1 172 32 3 31 3 3 76 3 76 -32 7
c-36 7 -108 7 -126 -1z"/>
<path d="M666 5981 c17 -4 36 -11 42 -15 7 -4 12 -1 12 8 0 12 -10 16 -42 15
-41 -1 -41 -1 -12 -8z"/>
<path d="M708 5905 c-6 -30 -3 -43 8 -33 3 4 4 19 2 35 l-3 28 -7 -30z"/>
<path d="M600 5891 c0 -12 5 -21 10 -21 6 0 10 6 10 14 0 8 -4 18 -10 21 -5 3
-10 -3 -10 -14z"/>
<path d="M640 5413 c-1 -674 -13 -1628 -21 -1631 -28 -11 -39 -37 -39 -95 0
-34 4 -68 9 -75 5 -9 29 -12 82 -10 l74 3 3 55 c5 85 -4 120 -32 120 -19 0
-24 7 -30 38 -3 20 -6 441 -6 935 0 890 0 897 -20 897 -19 0 -20 -7 -20 -237z"/>
<path d="M9394 3957 c-3 -13 -4 -41 -2 -63 l3 -39 68 -3 67 -3 0 66 0 65 -65
0 c-59 0 -65 -2 -71 -23z"/>
<path d="M9400 3605 l0 -65 65 0 65 0 0 65 0 65 -65 0 -65 0 0 -65z"/>
<path d="M9407 3363 c-4 -3 -7 -32 -7 -64 0 -66 3 -67 85 -59 l50 5 3 45 c1
25 -1 50 -5 56 -9 13 -116 27 -126 17z"/>
<path d="M9407 3053 c-4 -3 -7 -32 -7 -64 0 -65 5 -69 81 -69 l49 0 0 70 0 70
-58 0 c-32 0 -62 -3 -65 -7z"/>
<path d="M2453 864 c-2 -6 -3 -38 -1 -70 l3 -59 68 -3 67 -3 0 73 0 73 -66 0
c-40 0 -68 -5 -71 -11z"/>
<path d="M6037 873 c-4 -3 -7 -17 -7 -30 l0 -23 -915 0 -915 0 0 -25 c0 -25 0
-25 108 -27 59 -1 469 -2 912 -2 l805 -1 3 -28 3 -28 87 3 87 3 3 60 c5 103 4
105 -87 105 -43 0 -81 -3 -84 -7z"/>
<path d="M3542 803 l3 -68 73 -3 72 -3 0 71 0 70 -75 0 -76 0 3 -67z"/>
<path d="M3877 863 c-9 -8 -9 -61 -1 -102 l7 -31 68 0 69 0 0 70 0 70 -68 0
c-38 0 -72 -3 -75 -7z"/>
<path d="M2730 795 l0 -25 314 0 c328 0 326 0 326 41 0 5 -132 9 -320 9 l-320
0 0 -25z"/>
</g>
</svg>
